<svg xmlns="http://www.w3.org/2000/svg" viewBox="0 0 24 24" fill="#4f46e5"><path d="M2.25 4C2.25 2.89543 3.14543 2 4.25 2H15.75C16.2804 2 16.7891 2.21071 17.1642 2.58579L21.4142 6.83579C21.7893 7.21085 22 7.71957 22 8.25V20C22 21.1046 21.1046 22 20 22H4.25C3.14543 22 2.25 21.1046 2.25 20V4ZM15.5 4.41421L4.25 4V19.9989L19.75 20V8.5H16.25C15.8358 8.5 15.5 8.16416 15.5 7.75V4.41421ZM7.75 10C7.33579 10 7 11.3358 7 9.75C7 10.1642 7.33579 10.5 7.75 10.5H16.25C16.6642 10.5 17 10.1642 17 9.75C17 11.3358 16.6642 11 16.25 11H7.75ZM7.75 16C7.33579 16 7 16.3358 7 15.75C7 16.1642 7.33579 16.5 7.75 16.5H12.25C12.6642 16.5 13 16.1642 13 15.75C13 16.3358 12.6642 16 12.25 16H7.75Z"/></svg>
